<svg width="151" height="57" viewBox="0 0 151 57" fill="none" xmlns="http://www.w3.org/2000/svg">
<path d="M28.7037 12.0653H7.47006V19.5828H26.3382V28.7469H7.47006V44.7524H0V2.90952H28.7037V12.0653Z" fill="#38225C"/>
<path d="M38.4687 9.76132C36.8917 9.76132 35.5678 9.28643 34.4971 8.33663C33.9874 7.91098 33.5786 7.3774 33.3005 6.7745C33.0224 6.1716 32.8818 5.51444 32.889 4.85059C32.8809 4.19037 33.0216 3.5368 33.3007 2.93835C33.5798 2.3399 33.9902 1.81192 34.5013 1.39359C35.572 0.464528 36.8959 0 38.4729 0C40.0914 0 41.4367 0.464528 42.5088 1.39359C43.0185 1.81273 43.4275 2.34102 43.7055 2.93939C43.9835 3.53776 44.1234 4.19092 44.1148 4.85059C44.1294 5.52107 43.9925 6.18619 43.7145 6.79654C43.4364 7.40689 43.0243 7.94676 42.5088 8.37603C41.4325 9.29956 40.0858 9.76132 38.4687 9.76132ZM35.0117 44.7441V13.8156H41.9278V44.7358L35.0117 44.7441Z" fill="#38225C"/>
<path d="M73.4719 13.8154V19.7568C72.374 17.7396 70.7628 16.0477 68.801 14.8523C66.8228 13.6703 64.5547 13.0615 62.2502 13.0937C57.9618 13.0937 54.4018 14.5896 51.5701 17.5814C48.7384 20.5732 47.3239 24.2949 47.3267 28.7467C47.3267 33.2316 48.7411 36.9699 51.5701 39.9617C54.399 42.9535 57.959 44.4494 62.2502 44.4494C64.559 44.4822 66.83 43.8617 68.801 42.6597C70.7499 41.4592 72.3581 39.7791 73.4719 37.7801V41.3574C73.4719 43.5805 72.6633 45.3487 71.0462 46.6621C69.429 47.9755 67.2454 48.6322 64.4953 48.6322C60.4491 48.6322 57.6575 47.5407 56.1206 45.3577H48.9016C49.8312 48.9523 51.6717 51.792 54.4232 53.8769C57.1747 55.9617 60.5321 57.0027 64.4953 57C69.308 57 73.1696 55.5746 76.0802 52.7238C78.9907 49.8731 80.4474 46.1043 80.4501 41.4175V13.8154H73.4719ZM68.8695 34.6943C68.8301 34.7399 68.7512 34.8063 68.7242 34.8312C53.4002 47.4025 54.6722 20.9617 54.7199 20.6361C54.7199 20.6361 83.7038 19.1347 68.8695 34.6943Z" fill="#38225C"/>
<path d="M107.019 2.90952C111.224 2.90952 114.752 4.28375 117.601 7.03221C120.451 9.78067 121.877 13.1962 121.88 17.2788C121.88 21.3614 120.454 24.7769 117.601 27.5254C114.749 30.2739 111.221 31.6481 107.019 31.6481H95.3094V44.7441H87.8394V2.90952H107.019ZM106.836 22.4923C109.061 22.4923 110.83 22.0174 112.144 21.0676C113.458 20.1178 114.115 18.8549 114.115 17.2788C114.115 15.7027 113.458 14.4398 112.144 13.49C110.83 12.5402 109.061 12.0653 106.836 12.0653H95.3094V22.4923H106.836Z" fill="#64DA8D"/>
<path d="M145.357 9.76132C143.78 9.76132 142.456 9.28643 141.383 8.33663C140.874 7.91098 140.465 7.3774 140.187 6.7745C139.909 6.1716 139.768 5.51444 139.775 4.85059C139.767 4.19071 139.907 3.53735 140.185 2.93892C140.463 2.34049 140.873 1.81233 141.383 1.39359C142.454 0.464528 143.779 0 145.357 0C146.973 0 148.317 0.464528 149.391 1.39359C149.901 1.81263 150.31 2.34084 150.589 2.9392C150.867 3.53756 151.007 4.19078 150.999 4.85059C151.013 5.52121 150.876 6.18639 150.598 6.79673C150.319 7.40706 149.907 7.94687 149.391 8.37603C148.319 9.29956 146.974 9.76132 145.357 9.76132ZM141.898 44.7441V13.8156H148.814V44.7358L141.898 44.7441Z" fill="#64DA8D"/>
<path d="M130.798 9.76132C129.221 9.76132 127.897 9.28643 126.825 8.33663C126.315 7.91098 125.906 7.3774 125.628 6.7745C125.35 6.1716 125.209 5.51444 125.217 4.85059C125.208 4.19071 125.348 3.53735 125.627 2.93892C125.905 2.34049 126.314 1.81233 126.825 1.39359C127.896 0.464528 129.22 0 130.798 0C132.414 0 133.759 0.464528 134.832 1.39359C135.342 1.81263 135.752 2.34084 136.03 2.9392C136.308 3.53756 136.449 4.19078 136.44 4.85059C136.455 5.52121 136.317 6.18639 136.039 6.79673C135.761 7.40706 135.348 7.94687 134.832 8.37603C133.76 9.29956 132.416 9.76132 130.798 9.76132ZM127.339 44.7441V13.8156H134.255V44.7358L127.339 44.7441Z" fill="#64DA8D"/>
</svg>
